# xmcd
#
# Track frame offsets: 
#        150
#        10679
#        19367
#        29891
#        40045
#        51378
#        65442
#        73333
#        87010
#        96896
#        111031
#        122781
#        134064
#        150628
#        164695
#        176047
#        185016
#        196548
#        209478
#        223975
#
# Disc length: 3183 seconds
#
# Revision: 0
# Processed by: cddbd v1.5.2PL0 Copyright (c) Steve Scherf et al.
# Submitted via: ExactAudioCopy v0.95b4
#
DISCID=320c6d14
DTITLE=Various Artist - Country Hits Vol. 4
DYEAR=2002
DGENRE=Country
TTITLE0=Carl Perkins - I Can Feel It
TTITLE1=Willie Nelson - Why Are You Pickin' On Me
TTITLE2=Anne Murray - For Baby
TTITLE3=Bob Wills - Sooner Or Later
TTITLE4=Barbara Mandrell - Playing Around With Love
TTITLE5=Freddy Fender - La Bamba
TTITLE6=George Jones - Yes, I Know Why
TTITLE7=Jackson Stonewall - Keep Off The Grass
TTITLE8=Ronnie McDowell - Watchin' Girls Go By
TTITLE9=Dottie West - What Are We Doin' In Love
TTITLE10=Ralph Stanley - Are You Proud Of America
TTITLE11=Razzy Bailey - She Wanted To
TTITLE12=Gail Davies - Someone Is Looking For Someone Like You
TTITLE13=Ferlin Husky - Hello I'm A Truck
TTITLE14=Terri Gibbs - True Love Is Blind
TTITLE15=Willie Nelson - Waiting Time
TTITLE16=Johnny Paycheck - Take This Job And Shove It
TTITLE17=Freddy Fender - Just Because
TTITLE18=Eddie Raven - Who Do You Know In California
TTITLE19=Don Williams - Don't You Think It's Time
EXTD=
EXTT0=
EXTT1=
EXTT2=
EXTT3=
EXTT4=
EXTT5=
EXTT6=
EXTT7=
EXTT8=
EXTT9=
EXTT10=
EXTT11=
EXTT12=
EXTT13=
EXTT14=
EXTT15=
EXTT16=
EXTT17=
EXTT18=
EXTT19=
PLAYORDER=
